<svg width="30" height="30" viewBox="0 0 30 30" fill="none" xmlns="http://www.w3.org/2000/svg">
<circle cx="15" cy="15" r="15" fill="#DD246E"/>
<path d="M17.5007 12.4995C18.6942 12.4995 19.8388 12.9736 20.6827 13.8175C21.5266 14.6614 22.0007 15.806 22.0007 16.9995V22.2495H19.0007V16.9995C19.0007 16.6017 18.8427 16.2201 18.5614 15.9388C18.2801 15.6575 17.8985 15.4995 17.5007 15.4995C17.1029 15.4995 16.7214 15.6575 16.4401 15.9388C16.1588 16.2201 16.0007 16.6017 16.0007 16.9995V22.2495H13.0007V16.9995C13.0007 15.806 13.4748 14.6614 14.3187 13.8175C15.1627 12.9736 16.3072 12.4995 17.5007 12.4995Z" fill="white"/>
<path d="M9.99999 13.25H7V22.25H9.99999V13.25Z" fill="white"/>
<path d="M8.5 11C9.32842 11 9.99999 10.3284 9.99999 9.5C9.99999 8.67157 9.32842 8 8.5 8C7.67157 8 7 8.67157 7 9.5C7 10.3284 7.67157 11 8.5 11Z" fill="white"/>
</svg>
