<svg width="19" height="21" viewBox="0 0 19 21" fill="none" xmlns="http://www.w3.org/2000/svg">
<path d="M0.609002 0L10.792 10.186L0.610002 20.372C0.428942 20.2959 0.27443 20.1679 0.165892 20.0042C0.0573553 19.8405 -0.000360769 19.6484 1.69682e-06 19.452V0.92C7.83459e-05 0.723821 0.0578565 0.531998 0.166143 0.368413C0.274429 0.204827 0.42844 0.0767059 0.609002 0ZM11.499 10.893L13.801 13.195L2.864 19.528L11.499 10.893ZM14.698 7.695L17.505 9.321C17.6565 9.40891 17.7823 9.53508 17.8698 9.68689C17.9572 9.83869 18.0032 10.0108 18.0032 10.186C18.0032 10.3612 17.9572 10.5333 17.8698 10.6851C17.7823 10.8369 17.6565 10.9631 17.505 11.051L14.697 12.677L12.206 10.186L14.698 7.695ZM2.864 0.844L13.802 7.176L11.499 9.479L2.864 0.844Z" fill="#6759FF"/>
</svg>
