<svg width="1440" height="743" viewBox="0 0 1440 743" fill="none" xmlns="http://www.w3.org/2000/svg">
<rect width="1440" height="743" fill="#B8DDE3"/>
<mask id="mask0_168_373" style="mask-type:alpha" maskUnits="userSpaceOnUse" x="0" y="0" width="137" height="743">
<rect width="137" height="743" fill="#B8DDE3"/>
</mask>
<g mask="url(#mask0_168_373)">
<path fill-rule="evenodd" clip-rule="evenodd" d="M-165.457 315.818C-104.456 322.225 -36.0117 291.952 11.4983 325.737C60.5493 360.617 63.7591 423.115 62.7672 478.109C61.8174 530.771 42.1195 579.51 6.15543 621.957C-36.7718 672.622 -83.6309 737.003 -156.14 736.476C-228.251 735.951 -258.647 658.952 -314.706 619.623C-381.576 572.71 -492.213 560.474 -510.804 487.658C-530.353 411.092 -479.247 321.468 -400.798 282.433C-329.128 246.771 -247.492 307.201 -165.457 315.818Z" fill="#70C7C6"/>
</g>
</svg>
