<svg width="30" height="30" viewBox="0 0 30 30" fill="none" xmlns="http://www.w3.org/2000/svg">
<circle cx="15" cy="15" r="15" fill="#DD246E"/>
<path d="M23 9.00686C22.3471 9.46741 21.6242 9.81966 20.8591 10.05C20.4485 9.57789 19.9027 9.24324 19.2957 9.09135C18.6887 8.93947 18.0497 8.97767 17.4651 9.2008C16.8805 9.42393 16.3785 9.82122 16.027 10.3389C15.6756 10.8567 15.4916 11.4698 15.5 12.0955V12.7773C14.3018 12.8084 13.1145 12.5426 12.0439 12.0038C10.9732 11.4649 10.0525 10.6696 9.36364 9.68867C9.36364 9.68867 6.63636 15.825 12.7727 18.5523C11.3685 19.5055 9.69579 19.9834 8 19.9159C14.1364 23.325 21.6364 19.9159 21.6364 12.075C21.6357 11.8851 21.6175 11.6957 21.5818 11.5091C22.2777 10.8229 22.7687 9.95643 23 9.00686Z" fill="white"/>
</svg>
